<svg xmlns="http://www.w3.org/2000/svg" width="90.003" height="86.964" viewBox="0 0 90.003 86.964">
  <g id="ico_platform" transform="translate(1.25 1.25)">
    <path id="Caminho_797" data-name="Caminho 797" d="M786.648,141.678c0,1.623-1.72,2.937-3.848,2.937H703c-2.126,0-3.852-1.314-3.852-2.937V83.839c0-1.619,1.726-2.934,3.852-2.934h79.8c2.128,0,3.848,1.315,3.848,2.934Z" transform="translate(-699.145 -80.905)" fill="none" stroke="#fff" stroke-linecap="round" stroke-linejoin="round" stroke-width="2.5"/>
    <line id="Linha_7" data-name="Linha 7" x2="74.684" transform="translate(6.449 55.829)" fill="none" stroke="#fff" stroke-linecap="round" stroke-linejoin="round" stroke-width="2.5"/>
    <line id="Linha_8" data-name="Linha 8" x2="43.802" transform="translate(21.457 84.027)" fill="none" stroke="#fff" stroke-linecap="round" stroke-linejoin="round" stroke-width="2.5"/>
    <path id="Caminho_798" data-name="Caminho 798" d="M725.9,128.9s-1.151,11.282-8.055,14.886" transform="translate(-690.908 -59.762)" fill="none" stroke="#fff" stroke-linecap="round" stroke-linejoin="round" stroke-width="2.5"/>
    <path id="Caminho_799" data-name="Caminho 799" d="M735.692,128.9s1.146,11.282,8.052,14.886" transform="translate(-683.046 -59.762)" fill="none" stroke="#fff" stroke-linecap="round" stroke-linejoin="round" stroke-width="2.5"/>
    <path id="Caminho_800" data-name="Caminho 800" d="M708.708,118.772,735.186,97.2l25.5,21.574,11.44-9.154" transform="translate(-694.932 -73.728)" fill="none" stroke="#fff" stroke-linecap="round" stroke-linejoin="round" stroke-width="2.5"/>
    <path id="Caminho_801" data-name="Caminho 801" d="M752.766,95.74a7.846,7.846,0,1,1-7.846-7.846A7.845,7.845,0,0,1,752.766,95.74Z" transform="translate(-682.438 -77.826)" fill="none" stroke="#fff" stroke-linecap="round" stroke-linejoin="round" stroke-width="2.5"/>
  </g>
</svg>
