<svg xmlns="http://www.w3.org/2000/svg" width="88.039" height="86.532" viewBox="0 0 88.039 86.532">
  <g id="ico_premade" transform="translate(1.25 1.25)">
    <path id="Caminho_770" data-name="Caminho 770" d="M111.46,130.2h-7.625a1.821,1.821,0,0,1-1.821-1.82V78.4a1.823,1.823,0,0,1,1.821-1.825h34.091a1.822,1.822,0,0,1,1.82,1.825v49.987a1.821,1.821,0,0,1-1.82,1.82h-8.333" transform="translate(-77.616 -76.571)" fill="none" stroke="#fff" stroke-linecap="round" stroke-linejoin="round" stroke-width="2.5"/>
    <path id="Caminho_771" data-name="Caminho 771" d="M102.343,121.176H83.873a1.311,1.311,0,0,1-1.312-1.309v-36a1.312,1.312,0,0,1,1.312-1.313h18.47" transform="translate(-82.561 -75.05)" fill="none" stroke="#fff" stroke-linecap="round" stroke-linejoin="round" stroke-width="2.5"/>
    <path id="Caminho_772" data-name="Caminho 772" d="M134.989,82.555h18.473a1.315,1.315,0,0,1,1.313,1.313v36a1.313,1.313,0,0,1-1.313,1.309H134.989" transform="translate(-69.235 -75.05)" fill="none" stroke="#fff" stroke-linecap="round" stroke-linejoin="round" stroke-width="2.5"/>
    <path id="Caminho_773" data-name="Caminho 773" d="M141.92,130.441a9.294,9.294,0,0,0-10.431,2.68l-2.778,2.182V109.759a3.66,3.66,0,1,0-7.321,0v13.9c-.687-.689-1.436-1.43-2.047-2.013,0,0-1.416-1.94-4.4-.821l-11.4,6.484s-1.487.52-1.713,3.2c0,0-1.265,10.507,2.087,15.947a15.547,15.547,0,0,0,12.819,6.631s6.11.3,12-6.257c0,0,11.181-11.7,13.64-13.713C142.372,133.122,144.531,131.334,141.92,130.441Z" transform="translate(-77.723 -69.066)" fill="none" stroke="#fff" stroke-linecap="round" stroke-linejoin="round" stroke-width="2.5"/>
  </g>
</svg>
