<svg xmlns="http://www.w3.org/2000/svg" width="74.674" height="90.647" viewBox="0 0 74.674 90.647">
  <g id="ico_odemand" transform="translate(1.25 1.25)">
    <g id="Grupo_163" data-name="Grupo 163">
      <path id="Caminho_774" data-name="Caminho 774" d="M273.514,142.66h-31.66a3.043,3.043,0,0,1-3.044-3.044V79.635a3.044,3.044,0,0,1,3.044-3.044h57a3.046,3.046,0,0,1,3.046,3.044v39.209" transform="translate(-238.811 -76.591)" fill="none" stroke="#fff" stroke-linecap="round" stroke-linejoin="round" stroke-width="2.5"/>
    </g>
    <g id="Grupo_165" data-name="Grupo 165" transform="translate(38.681 46.809)">
      <path id="Caminho_775" data-name="Caminho 775" d="M299.63,112.149H270.252a2.057,2.057,0,0,0-2.058,2.058v22.271a2.057,2.057,0,0,0,2.058,2.056h7.479l7.5,14.953,7.421-14.953h6.978a2.058,2.058,0,0,0,2.058-2.056V114.207A2.058,2.058,0,0,0,299.63,112.149Z" transform="translate(-268.194 -112.149)" fill="none" stroke="#fff" stroke-linecap="round" stroke-linejoin="round" stroke-width="2.5"/>
      <g id="Grupo_164" data-name="Grupo 164" transform="translate(9.187 5.888)">
        <line id="Linha_1" data-name="Linha 1" y2="15.121" transform="translate(7.559)" fill="none" stroke="#fff" stroke-linecap="round" stroke-linejoin="round" stroke-width="2.5"/>
        <line id="Linha_2" data-name="Linha 2" x1="15.121" transform="translate(0 7.562)" fill="none" stroke="#fff" stroke-linecap="round" stroke-linejoin="round" stroke-width="2.5"/>
      </g>
    </g>
    <g id="Grupo_166" data-name="Grupo 166" transform="translate(9.474 11.803)">
      <path id="Caminho_776" data-name="Caminho 776" d="M258.125,110.223a5.224,5.224,0,0,1,0-10.448" transform="translate(-243.826 -81.058)" fill="none" stroke="#fff" stroke-linecap="round" stroke-linejoin="round" stroke-width="2.5"/>
      <path id="Caminho_777" data-name="Caminho 777" d="M258.125,99.775a5.224,5.224,0,0,0,0,10.448h4.922a3.879,3.879,0,0,1,3.881,3.879V121" transform="translate(-243.826 -81.058)" fill="none" stroke="#fff" stroke-linecap="round" stroke-linejoin="round" stroke-width="2.5"/>
      <path id="Caminho_778" data-name="Caminho 778" d="M254.8,108.938a8.79,8.79,0,1,1,0-17.581" transform="translate(-246.007 -83.722)" fill="none" stroke="#fff" stroke-linecap="round" stroke-linejoin="round" stroke-width="2.5"/>
      <path id="Caminho_779" data-name="Caminho 779" d="M253.3,94.484a8.924,8.924,0,1,1,17.848,0" transform="translate(-243.701 -85.557)" fill="none" stroke="#fff" stroke-linecap="round" stroke-linejoin="round" stroke-width="2.5"/>
      <path id="Caminho_780" data-name="Caminho 780" d="M267.976,90.176a7.465,7.465,0,0,1,7.467,7.464" transform="translate(-239.056 -84.095)" fill="none" stroke="#fff" stroke-linecap="round" stroke-linejoin="round" stroke-width="2.5"/>
      <path id="Caminho_781" data-name="Caminho 781" d="M266.584,90.4a7.468,7.468,0,0,1,7.535,12.061" transform="translate(-239.496 -84.095)" fill="none" stroke="#fff" stroke-linecap="round" stroke-linejoin="round" stroke-width="2.5"/>
      <path id="Caminho_782" data-name="Caminho 782" d="M257.068,94.471a4.764,4.764,0,1,1,8.16,4.917" transform="translate(-242.507 -83.467)" fill="none" stroke="#fff" stroke-linecap="round" stroke-linejoin="round" stroke-width="2.5"/>
      <path id="Caminho_783" data-name="Caminho 783" d="M270.227,97.29a4.765,4.765,0,0,1-9.025,3.058" transform="translate(-241.199 -81.845)" fill="none" stroke="#fff" stroke-linecap="round" stroke-linejoin="round" stroke-width="2.5"/>
      <path id="Caminho_784" data-name="Caminho 784" d="M276,97.411a6.86,6.86,0,1,1-10.312,5.928" transform="translate(-239.781 -81.806)" fill="none" stroke="#fff" stroke-linecap="round" stroke-linejoin="round" stroke-width="2.5"/>
    </g>
  </g>
</svg>
