<svg xmlns="http://www.w3.org/2000/svg" width="79.668" height="86.74" viewBox="0 0 79.668 86.74">
  <g id="ico_drag" transform="translate(1.25 1.302)">
    <path id="Caminho_837" data-name="Caminho 837" d="M724.862,429.109H704.8a2.548,2.548,0,0,1-2.553-2.546V379.031a2.551,2.551,0,0,1,2.553-2.55h47.147a2.55,2.55,0,0,1,2.55,2.55V392" transform="translate(-702.247 -359.05)" fill="none" stroke="#fff" stroke-linecap="round" stroke-linejoin="round" stroke-width="2.5"/>
    <path id="Caminho_838" data-name="Caminho 838" d="M764.569,364.64s-23.536-4.232-33.85,11.636" transform="translate(-690.542 -364.128)" fill="none" stroke="#fff" stroke-linecap="round" stroke-linejoin="round" stroke-width="2.5"/>
    <path id="Caminho_839" data-name="Caminho 839" d="M758.78,372.769c-6.346-.367-13.5.824-19.432,5.963" transform="translate(-686.994 -360.601)" fill="none" stroke="#fff" stroke-linecap="round" stroke-linejoin="round" stroke-width="2.5"/>
    <path id="Caminho_840" data-name="Caminho 840" d="M756.937,373.232a4.052,4.052,0,0,0-.519-.1" transform="translate(-679.977 -360.426)" fill="none" stroke="#fff" stroke-linecap="round" stroke-linejoin="round" stroke-width="2.5"/>
    <g id="Grupo_183" data-name="Grupo 183" transform="translate(22.614 37.793)">
      <path id="Caminho_841" data-name="Caminho 841" d="M729.6,412.185l-5.326-5.328a5.292,5.292,0,0,1,0-7.485l.166-.165a5.294,5.294,0,0,1,7.485,0l2.668,2.667" transform="translate(-716.442 -388.137)" fill="none" stroke="#fff" stroke-linecap="round" stroke-linejoin="round" stroke-width="2.5"/>
      <path id="Caminho_842" data-name="Caminho 842" d="M732.2,423.5l-12.624-12.62a4.462,4.462,0,0,1,0-6.3l.14-.137a4.454,4.454,0,0,1,6.3,0l2.247,2.245" transform="translate(-718.273 -385.886)" fill="none" stroke="#fff" stroke-linecap="round" stroke-linejoin="round" stroke-width="2.5"/>
      <path id="Caminho_843" data-name="Caminho 843" d="M731.975,403.337l-1.65-1.754a4.332,4.332,0,0,1,.093-6.127l.138-.134a4.333,4.333,0,0,1,6.126.092l2.633,2.7" transform="translate(-713.821 -389.6)" fill="none" stroke="#fff" stroke-linecap="round" stroke-linejoin="round" stroke-width="2.5"/>
      <path id="Caminho_844" data-name="Caminho 844" d="M721.749,419.5v7.064s-.628,10.743,7.627,10.743h12.13s14.869,0,19.66-16.15c0,0,2.551-10.751-3.614-18.234-.137-.168-.279-.332-.425-.5l-6.707-7.5-2.635-2.7a4.332,4.332,0,0,0-6.127-.092l-.135.133a4.333,4.333,0,0,0-.094,6.126l.914,1.031" transform="translate(-716.848 -390.911)" fill="none" stroke="#fff" stroke-linecap="round" stroke-linejoin="round" stroke-width="2.5"/>
    </g>
  </g>
</svg>
