<svg xmlns="http://www.w3.org/2000/svg" width="84.385" height="86.687" viewBox="0 0 84.385 86.687">
  <g id="ico_multiple" transform="translate(1.25 1.25)">
    <path id="Retângulo_273" data-name="Retângulo 273" d="M1.645,0H47.06A1.645,1.645,0,0,1,48.7,1.645V49.364a1.645,1.645,0,0,1-1.645,1.645H1.646A1.646,1.646,0,0,1,0,49.362V1.645A1.645,1.645,0,0,1,1.645,0Z" transform="translate(0 33.178)" fill="none" stroke="#fff" stroke-linecap="round" stroke-linejoin="round" stroke-width="2.5"/>
    <path id="Caminho_821" data-name="Caminho 821" d="M717.975,254.063v-9.155a1.97,1.97,0,0,1,1.971-1.972h36.909a1.973,1.973,0,0,1,1.969,1.972v38.838a1.973,1.973,0,0,1-1.969,1.974H747.7" transform="translate(-693.529 -226.349)" fill="none" stroke="#fff" stroke-linecap="round" stroke-linejoin="round" stroke-width="2.5"/>
    <path id="Caminho_822" data-name="Caminho 822" d="M736.4,242.451v-9.621a1.5,1.5,0,0,1,1.5-1.5h28.1a1.5,1.5,0,0,1,1.5,1.5v29.576a1.5,1.5,0,0,1-1.5,1.5h-9.621" transform="translate(-685.624 -231.329)" fill="none" stroke="#fff" stroke-linecap="round" stroke-linejoin="round" stroke-width="2.5"/>
  </g>
</svg>
