<svg id="image_1" xmlns="http://www.w3.org/2000/svg" xmlns:xlink="http://www.w3.org/1999/xlink" width="223.253" height="201.988" viewBox="0 0 223.253 201.988">
  <defs>
    <clipPath id="clip-path">
      <ellipse id="Elipse_49" data-name="Elipse 49" cx="100.994" cy="100.994" rx="100.994" ry="100.994"/>
    </clipPath>
  </defs>
  <ellipse id="Elipse_48" data-name="Elipse 48" cx="100.994" cy="100.994" rx="100.994" ry="100.994" transform="translate(21.265 0)" fill="#5e4a9e" opacity="0.1"/>
  <g id="Grupo_722" data-name="Grupo 722" transform="translate(0 29.154)">
    <path id="Caminho_845" data-name="Caminho 845" d="M73.105,81.334a3.356,3.356,0,0,1-3.357,3.358H3.357A3.357,3.357,0,0,1,0,81.334V45.213a3.358,3.358,0,0,1,3.357-3.358h66.39A3.357,3.357,0,0,1,73.1,45.213V81.334Z" transform="translate(0 -41.855)" fill="#5e4a9e"/>
    <rect id="Retângulo_710" data-name="Retângulo 710" width="65.944" height="35.677" transform="translate(3.581 3.581)" fill="#fff" stroke="#5e4a9e" stroke-linecap="round" stroke-linejoin="round" stroke-width="1.5"/>
    <path id="Caminho_846" data-name="Caminho 846" d="M66.954,56.738a3.161,3.161,0,0,1-3.162,3.16H15.947a3.159,3.159,0,0,1-3.16-3.16h0a3.162,3.162,0,0,1,3.16-3.163H63.792a3.164,3.164,0,0,1,3.162,3.163Z" transform="translate(-3.88 -45.412)" fill="#d6246e"/>
    <line id="Linha_154" data-name="Linha 154" x2="12.777" transform="translate(12.025 20.893)" fill="none" stroke="#d6246e" stroke-linecap="round" stroke-linejoin="round" stroke-width="1.5"/>
    <line id="Linha_155" data-name="Linha 155" x2="12.777" transform="translate(12.025 24.473)" fill="none" stroke="#d6246e" stroke-linecap="round" stroke-linejoin="round" stroke-width="1.5"/>
    <line id="Linha_156" data-name="Linha 156" x2="12.777" transform="translate(12.025 28.054)" fill="none" stroke="#d6246e" stroke-linecap="round" stroke-linejoin="round" stroke-width="1.5"/>
    <line id="Linha_157" data-name="Linha 157" x2="12.777" transform="translate(12.025 31.634)" fill="none" stroke="#d6246e" stroke-linecap="round" stroke-linejoin="round" stroke-width="1.5"/>
    <line id="Linha_158" data-name="Linha 158" x2="12.096" transform="translate(49.763 31.634)" fill="none" stroke="#d6246e" stroke-linecap="round" stroke-linejoin="round" stroke-width="1.5"/>
    <rect id="Retângulo_711" data-name="Retângulo 711" width="1.741" height="4.161" transform="translate(50.097 27.473)" fill="#d6246e"/>
    <rect id="Retângulo_712" data-name="Retângulo 712" width="1.743" height="5.515" transform="translate(52.483 26.12)" fill="#d6246e"/>
    <rect id="Retângulo_713" data-name="Retângulo 713" width="1.741" height="8.321" transform="translate(54.87 23.312)" fill="#d6246e"/>
    <rect id="Retângulo_714" data-name="Retângulo 714" width="1.741" height="8.112" transform="translate(57.256 23.522)" fill="#d6246e"/>
    <rect id="Retângulo_715" data-name="Retângulo 715" width="1.743" height="8.806" transform="translate(59.643 22.828)" fill="#d6246e"/>
    <path id="Caminho_847" data-name="Caminho 847" d="M72.58,75.631l5.257-4.117,2.315.5,2.386-1.365" transform="translate(-22.025 -50.592)" fill="none" stroke="#d6246e" stroke-linecap="round" stroke-linejoin="round" stroke-width="1.5"/>
  </g>
  <g id="Grupo_726" data-name="Grupo 726" transform="translate(21.265 0)">
    <g id="Grupo_723" data-name="Grupo 723" clip-path="url(#clip-path)">
      <path id="Caminho_848" data-name="Caminho 848" d="M214.916,144.257s1.165-20.2-14.215-28.4c0,0-17.679-7.456-26.493-10.582l-.972-6.185c-.068-1.011-.3-4.89-.328-9.584a33.858,33.858,0,0,0,2.163-7.025c3.668.111,5.522-3.31,5.522-3.31,1.927-3.811-.508-6.1-.508-6.1A2.96,2.96,0,0,1,178,70.818L175.2,70.43a5.591,5.591,0,0,1,.981-1.464c4.77-4.8-1.385-6.69-1.385-6.69l-4.095,1.853a1.382,1.382,0,0,0-.417-.61,43.508,43.508,0,0,0-4.642-2.923,34.756,34.756,0,0,0-7.244-2.848c-1.524-.288-3.07.159-5.391,0a14.745,14.745,0,0,0-3.223-.1c-2.578.07-2.857-1.933-4.458.1s-2.632,1.611-2.762,4.529.385,7.59.258,8.542a11.559,11.559,0,0,0,0,1.6c-2.379.155-4.412,1.263-4.169,4.7,0,0,.5,6.051,6.3,5.742.671,2.138,1.5,4.545,2.436,6.831-.046,3.236-.29,11.343-1.5,16.39-3,.654-8.013,1.98-16.437,4.592,0,0-8.879,1.7-16.68,14.263,0,0-10.063,20.615-16.847,34.086-.267.383-.508.8-.651,1.028a14.137,14.137,0,0,0-.985,1.815,11.721,11.721,0,0,0-.384,1.144c-.441.863-.855,1.671-1.238,2.413a3.826,3.826,0,0,1-.537-.58,8.062,8.062,0,0,1-.589-.769c-3.351-6.549-7.16-14.611-10.048-20.847-.221-.558-.453-1.114-.71-1.663-.506-1.082-1.1-2.15-1.52-3.265a18.911,18.911,0,0,0-.985-2.083c-.752-1.658-1.225-2.707-1.307-2.894-.076-.254-.163-.508-.264-.754-.218-.528-.456-1.019-.692-1.5a1.637,1.637,0,0,0-.25-.806.912.912,0,0,0-.227-.18,10.764,10.764,0,0,1-.831-2.342c-.343-1.6-1.107-3.2-.888-4.828.43-3.167,3.971-5.418,4.129-8.749.08-1.7-1.44-3.045-2.9-3.6a17.245,17.245,0,0,0-2.246-.7c-.706-.155-1.8.017-2.335-.582a5.426,5.426,0,0,1-.936-2.391c-.147-.889-.32-1.855-.508-2.728-.358-1.668-.133-3.359-.717-4.978a34.391,34.391,0,0,0-1.827-4.8c-1.276-2.28-2.966-.075-3.125,1.546a38.277,38.277,0,0,0,.34,5.508c.072,1.773.564,3.756.314,5.5a2.619,2.619,0,0,0-3.481,1.567c-1.173.071-1.782-.266-2.707.664-.358.36-.559.953-.958,1.27-.548.435-.709.2-1.261.413-2.242.871-1.453,3.625-1.012,5.314.793,3.033,2.7,5.618,4.746,8.068.889,1.064,4.854,4.858,3.948,6.623a3.671,3.671,0,0,0-1.3.628c-.566.43-.454.517-.3,1.282.237,1.181.472,2.393.752,3.568.268,1.128.819,2.189,1.064,3.332.55,2.562.943,5.253,1.721,7.731a35.539,35.539,0,0,1,1.158,3.713,29.072,29.072,0,0,0,1.193,3.788,22.191,22.191,0,0,1,1.076,3.433,5.151,5.151,0,0,0,.467,1.735,30.625,30.625,0,0,0,1.43,6.658c.291,1.1,1.225,1.76,1.762,2.785.042.08.072.16.107.241l.226.713c.167.759.16,1.53.408,2.321a39.6,39.6,0,0,0,1.654,4.163l.226.711a25.384,25.384,0,0,0,2.8,6.383,3.176,3.176,0,0,0,.948,1.458c.027.017.06.03.088.045,3.547,4.677,7.541,5.547,7.541,5.547l.071-.2a12.377,12.377,0,0,0,10.644.2s9.915-3.389,19.349-18.659c0,0,3.6-6.134,6.945-11.792l-.993,34.266h-.068v2.356l-.072,2.494h.072v7.86h91.068v-7.86h.164S216.11,155.184,214.916,144.257Z" transform="translate(-37.68 -17.246)" fill="#fff"/>
    </g>
    <g id="Grupo_725" data-name="Grupo 725" clip-path="url(#clip-path)">
      <path id="Caminho_849" data-name="Caminho 849" d="M179.263,79.609s-4.393-1.06-3.788,4.394c0,0,1.819,7.27,6.817,5.453,0,0,.589,7.628,4.86,11.318" transform="translate(-74.497 -24.132)" fill="none" stroke="#5e4a9e" stroke-linecap="round" stroke-linejoin="round" stroke-width="1.5"/>
      <path id="Caminho_850" data-name="Caminho 850" d="M224.145,79.609s4.393-1.06,3.788,4.394c0,0-1.817,7.27-6.816,5.453a20.135,20.135,0,0,1-2.065,7.332s-4.02,8.65-11.5,8.842" transform="translate(-84.248 -24.132)" fill="none" stroke="#5e4a9e" stroke-linecap="round" stroke-linejoin="round" stroke-width="1.5"/>
      <path id="Caminho_851" data-name="Caminho 851" d="M187.56,104.194s-.469,12.608-1.149,15.811" transform="translate(-77.833 -31.618)" fill="none" stroke="#5e4a9e" stroke-linecap="round" stroke-linejoin="round" stroke-width="1.5"/>
      <path id="Caminho_852" data-name="Caminho 852" d="M224.559,104.194s.469,12.608,1.149,15.811" transform="translate(-89.409 -31.618)" fill="none" stroke="#5e4a9e" stroke-linecap="round" stroke-linejoin="round" stroke-width="1.5"/>
      <path id="Caminho_853" data-name="Caminho 853" d="M179.263,79.609s-4.393-1.06-3.788,4.394c0,0,1.819,7.27,6.817,5.453,0,0,.589,7.628,4.86,11.318" transform="translate(-74.497 -24.132)" fill="none" stroke="#5e4a9e" stroke-linecap="round" stroke-linejoin="round" stroke-width="1.5"/>
      <path id="Caminho_854" data-name="Caminho 854" d="M187.56,104.194s-.469,12.608-1.149,15.811" transform="translate(-77.833 -31.618)" fill="none" stroke="#5e4a9e" stroke-linecap="round" stroke-linejoin="round" stroke-width="1.5"/>
      <path id="Caminho_855" data-name="Caminho 855" d="M224.559,103.388s.469,13.169,1.149,16.374" transform="translate(-89.409 -31.374)" fill="none" stroke="#5e4a9e" stroke-linecap="round" stroke-linejoin="round" stroke-width="1.5"/>
      <line id="Linha_159" data-name="Linha 159" x2="204.961" transform="translate(23.629 190.361)" fill="none" stroke="#5e4a9e" stroke-linecap="round" stroke-linejoin="round" stroke-width="1.5"/>
      <path id="Caminho_856" data-name="Caminho 856" d="M215.25,52.317a59,59,0,0,1-5.136-7.277c-2.657-5.412-12.147-2.221-12.147-2.221a32.11,32.11,0,0,1-7.172-.368C177,40.7,179.462,50.679,179.462,50.679s-7.681,1.51-2.744,17.82a3.447,3.447,0,0,1,2.632-.224l-.424.414s1.326.085,1.9,3.22c0,0,.17,1.21.6,1.545,0,0,.954.557.9-.522,0,0,.058-5.15.143-5.989v-.006a46.914,46.914,0,0,0-.162-11.363s3.35-1.8,8.372,1.03c0,0,11.984,6.123,19.316,6.865a9.716,9.716,0,0,1,1.068,4.108c.065,1.627.107,5.355.107,5.355-.059,1.08.9.522.9.522.423-.334.595-1.545.595-1.545.571-3.135,1.9-3.22,1.9-3.22l-.6-.586a1.112,1.112,0,0,1,.261-.15c.3-.013.592-.023.866-.02a1.8,1.8,0,0,1,.391.17c.016-.049.024-.1.041-.151a2.688,2.688,0,0,1,.538.08l.154.071C219.995,56.7,215.25,52.317,215.25,52.317Z" transform="translate(-74.389 -12.71)" fill="#5e4a9e"/>
      <path id="Caminho_857" data-name="Caminho 857" d="M163.02,126.895s-17.973,4.184-24.27,8.682c0,0-4.89,2.68-11.556,14.544,0,0-15.88,32.7-17.861,37.192" transform="translate(-54.443 -38.507)" fill="none" stroke="#5e4a9e" stroke-linecap="round" stroke-linejoin="round" stroke-width="1.5"/>
      <path id="Caminho_858" data-name="Caminho 858" d="M226.209,126.895s23.407,7.479,29.7,11.977c0,0,6.24,3.428,9.667,14.689,0,0,4.281,5.8-.445,75.306" transform="translate(-89.91 -38.507)" fill="none" stroke="#5e4a9e" stroke-linecap="round" stroke-linejoin="round" stroke-width="1.5"/>
      <g id="Grupo_724" data-name="Grupo 724" transform="translate(16.349 75.929)">
        <path id="Caminho_859" data-name="Caminho 859" d="M98,192.929s-18.462-36.317-20.473-44.783a6.862,6.862,0,0,1,1.826-6.212s3.667-4.172,1.238-6.761c0,0-4.024-4.182-11.675-1.744,0,0-4.027.876-2.839,4.057,0,0,.616,2.5,6.678.482" transform="translate(-57.598 -116.187)" fill="none" stroke="#5e4a9e" stroke-linecap="round" stroke-linejoin="round" stroke-width="1.5"/>
        <path id="Caminho_860" data-name="Caminho 860" d="M74.153,125.488s-2.269-12.3-2.476-13.177c0,0-.765-3.591-2.645-3.285,0,0-1.459-.019-1.413,3.843l.871,10.964" transform="translate(-58.132 -109.007)" fill="none" stroke="#5e4a9e" stroke-linecap="round" stroke-linejoin="round" stroke-width="1.5"/>
        <path id="Caminho_861" data-name="Caminho 861" d="M67.6,132.39s.155-3.814-2.484-3.534c0,0-2.628.033-2.145,4.734,0,0,1.034,5.673,3.34,5.935,0,0,1.6.446,1.793-1.94" transform="translate(-56.703 -115.026)" fill="none" stroke="#5e4a9e" stroke-linecap="round" stroke-linejoin="round" stroke-width="1.5"/>
        <path id="Caminho_862" data-name="Caminho 862" d="M61.727,131.445a1.916,1.916,0,0,0-1.268-.257s-2.628.034-2.147,4.733c0,0,.887,4.932,3.85,5.659,0,0,1.669.581,1.665-1.9" transform="translate(-55.291 -115.734)" fill="none" stroke="#5e4a9e" stroke-linecap="round" stroke-linejoin="round" stroke-width="1.5"/>
        <path id="Caminho_863" data-name="Caminho 863" d="M57.13,134.213a2.083,2.083,0,0,0-.869-.073s-2.856.2-2.148,4.732c0,0,1.238,4.881,4.231,5.609,0,0,1.857.463,1.173-2.713" transform="translate(-54 -116.63)" fill="none" stroke="#5e4a9e" stroke-linecap="round" stroke-linejoin="round" stroke-width="1.5"/>
      </g>
      <path id="Caminho_864" data-name="Caminho 864" d="M57.223,147.007s3.423,6.131,6.554,8.014c0,0,.218.946.6,2.567" transform="translate(-38.63 -44.61)" fill="none" stroke="#5e4a9e" stroke-linecap="round" stroke-linejoin="round" stroke-width="1.5"/>
      <path id="Caminho_865" data-name="Caminho 865" d="M77.506,157.013s-11.56,4.4-13.053,4.9c0,0,8.968,39.685,17.1,53.3,0,0,5.171,7.97,14.623,7.305,0,0,14.276.024,29.99-31.391" transform="translate(-40.824 -47.647)" fill="none" stroke="#5e4a9e" stroke-linecap="round" stroke-linejoin="round" stroke-width="1.5"/>
      <path id="Caminho_866" data-name="Caminho 866" d="M186.41,126.895l12.146,70.921,15.575-70.921" transform="translate(-77.833 -38.507)" fill="none" stroke="#5e4a9e" stroke-linecap="round" stroke-linejoin="round" stroke-width="1.5"/>
      <path id="Caminho_867" data-name="Caminho 867" d="M166.314,132.666l4.422,24.749,7.786,4.033-5.058,8.546,18.995,29.574" transform="translate(-71.734 -40.258)" fill="none" stroke="#5e4a9e" stroke-linecap="round" stroke-linejoin="round" stroke-width="1.5"/>
      <path id="Caminho_868" data-name="Caminho 868" d="M229.81,132.666l-4.424,24.749-7.785,4.033,5.058,8.546-18.811,29.574V230" transform="translate(-83.124 -40.258)" fill="none" stroke="#5e4a9e" stroke-linecap="round" stroke-linejoin="round" stroke-width="1.5"/>
      <path id="Caminho_869" data-name="Caminho 869" d="M186.41,126.895a24.054,24.054,0,0,0,27.722,0s-15.452,70.718-15.575,70.248S186.41,126.895,186.41,126.895Z" transform="translate(-77.833 -38.507)" fill="#5e4a9e"/>
      <path id="Caminho_870" data-name="Caminho 870" d="M153.574,199.8" transform="translate(-67.868 -60.631)" fill="#5e4a9e"/>
      <path id="Caminho_871" data-name="Caminho 871" d="M153,194.4s-1.48,26.451-1.071,54.951" transform="translate(-67.346 -58.993)" fill="none" stroke="#5e4a9e" stroke-linecap="round" stroke-linejoin="round" stroke-width="1.5"/>
      <path id="Caminho_872" data-name="Caminho 872" d="M258.928,194.4s.3,40.924,0,54.951" transform="translate(-99.839 -58.993)" fill="none" stroke="#5e4a9e" stroke-linecap="round" stroke-linejoin="round" stroke-width="1.5"/>
    </g>
  </g>
</svg>
