<svg id="logo_mindthegraph" xmlns="http://www.w3.org/2000/svg" width="134.677" height="44.829" viewBox="0 0 134.677 44.829">
  <path id="Caminho_19" data-name="Caminho 19" d="M19,9.147a2.552,2.552,0,0,0-1.763,1.745,3.142,3.142,0,0,0,.217,2.712l3.848-.2a2.5,2.5,0,0,1,.572-1.666Z" transform="translate(14.777 7.938)" fill="#fff"/>
  <path id="Caminho_20" data-name="Caminho 20" d="M44.16,11.381a1.949,1.949,0,0,0-2.116,1.586c-.213.947.549,1.076.506,2.451a3.924,3.924,0,0,1-.889,2.079s.508-2.467-.3-3.153a3.45,3.45,0,0,0-3.6-.6,2.347,2.347,0,0,1,2.118-.947,1.645,1.645,0,0,0,1.44-1.115,1.833,1.833,0,0,1,1.44-1.287c.6-2.225-2.07-5.561-5.092-5.31C37.656,6.64,35.82,7.559,35.82,7.559c1.016-.687.9-2.456.9-2.456a6.382,6.382,0,0,0-5.559-3.4,5.488,5.488,0,0,0-2.718.646c-.516.4-.777.895-.544,2.027a3.266,3.266,0,0,0,3.261,2.193A2.929,2.929,0,0,1,28.2,6.185c-1.606-1.115-1.522-1.631-2.708-1.246a8.229,8.229,0,0,0-2.538,1.506,6.543,6.543,0,0,1,2.2-1.866c1.27-.585,1.737-.835,1.737-.835A1.981,1.981,0,0,1,27.7,1.5,6.645,6.645,0,0,0,23.8,0a4.489,4.489,0,0,0-2.977.833,6.509,6.509,0,0,0-2.527,4.106,4.175,4.175,0,0,1-.03-2.647,14.922,14.922,0,0,0-4.6-.743A13.763,13.763,0,0,0,.047,14.4c0,.267.062,1.321,1.1,1.321,1.651,0,2.406-1.507,2.837-2.148a2.034,2.034,0,0,1,1.438-.986,2.314,2.314,0,0,0-.932,2.834,4.967,4.967,0,0,0,2.585,2.791s-1.526.471-3.685-2.146a2.881,2.881,0,0,1-1.862.859c-1.016,0-1.33-.2-1.5,1.343C.013,18.4,0,18.539,0,18.677c0,3.771,3.357,6.829,7.5,6.829.228,0,.454-.011.674-.032A4.54,4.54,0,0,1,12.5,21.763a3.986,3.986,0,0,0-2.634,2.372,3.383,3.383,0,0,0,.359,3.256A7.726,7.726,0,0,0,16.3,30.23a7.922,7.922,0,0,0,4.72-1.528s-1.123-.878-.657-3.151c0,0,.508,2.1,1.948,2.447s3.3-.73,5.548,2.273a5.918,5.918,0,0,0-4.4-1.113,6.749,6.749,0,0,0-2,.654A9.075,9.075,0,0,0,26.539,34.4a8.874,8.874,0,0,0,7.023-.282,4.45,4.45,0,0,1-.151-2.52,3.941,3.941,0,0,0,3.945,2.748,6.521,6.521,0,0,0,4.485-2.139,2.066,2.066,0,0,0,.6-1.291c.021-.622-.243-1.483-1.956-1.166a4.829,4.829,0,0,0-2.286.861,3.154,3.154,0,0,1,1.778-1.591c1.311-.471,1.438-2.834.633-4.681a4.834,4.834,0,0,1,1.356,3,8.148,8.148,0,0,0,.084,1.375,2.745,2.745,0,0,1,1.4,1.633,4.42,4.42,0,0,0,2.591-1.212c4.083-3.895,3.8-12.924-.25-16.981A2.344,2.344,0,0,0,44.16,11.381Zm-5.766,10.6a46.662,46.662,0,0,1-6.411.467L14.3,16.069a3.569,3.569,0,0,1-.652-3.695A3.579,3.579,0,0,1,16.467,9.89L34.15,16.273s4.216,3.958,4.541,4.33S39.14,21.85,38.394,21.981Z" fill="#fff"/>
  <path id="Caminho_21" data-name="Caminho 21" d="M21.107,19.4a2.461,2.461,0,0,0-.241,4.907,2.035,2.035,0,0,0,.241.015,1.972,1.972,0,0,0,.237-.015,2.461,2.461,0,0,0-.237-4.907Z" transform="translate(16.209 16.84)" fill="#fff"/>
  <path id="Caminho_22" data-name="Caminho 22" d="M23.452,25.65A1.776,1.776,0,1,0,21.7,23.873,1.764,1.764,0,0,0,23.452,25.65Z" transform="translate(18.833 19.179)" fill="#fff"/>
  <path id="Caminho_23" data-name="Caminho 23" d="M43.941,19.345H41.172c-1.767,0-2.649.542-2.649,1.793s.882,1.771,2.649,1.771H42.5a3.187,3.187,0,0,1-3.347,3.373c-2.464,0-4.137-2-4.137-5.309,0-3.231,1.627-5.142,4.16-5.142,2.279,0,3.487,1.627,4.6,1.627a1.739,1.739,0,0,0,1.6-1.8c0-1.651-2.417-3.491-6.089-3.491-5.069,0-8.348,3.422-8.348,8.871,0,5.333,3.325,8.895,7.9,8.895,4.72,0,7.718-3.373,7.718-8.045C46.567,20.054,45.777,19.345,43.941,19.345Z" transform="translate(26.854 10.564)" fill="#fff"/>
  <path id="Caminho_24" data-name="Caminho 24" d="M48.5,22.2a4.4,4.4,0,0,0,3.952-4.528c0-3.091-2.232-5.238-6.3-5.238H43.22c-2.094,0-2.606.827-2.606,2.688V26.71c0,1.819.605,2.712,1.885,2.712s1.881-.893,1.881-2.712V22.582l4.393,5.592c.7.872,1.278,1.369,2.025,1.369a1.757,1.757,0,0,0,1.789-1.8,3.642,3.642,0,0,0-1.117-2.193Zm-2.372-2.169H44.38V15.955h1.793c1.509,0,2.346.755,2.346,2C48.519,19.258,47.66,20.035,46.124,20.035Z" transform="translate(35.248 10.795)" fill="#fff"/>
  <path id="Caminho_25" data-name="Caminho 25" d="M57.646,14.529a2.9,2.9,0,0,0-2.766-2.217c-1.4,0-2.277.8-2.882,2.475L47.7,26.631a3.046,3.046,0,0,0-.187,1.11A1.737,1.737,0,0,0,49.3,29.56c.814,0,1.442-.57,1.816-1.7l.557-1.7h6.114l.463,1.558c.374,1.248,1,1.862,1.978,1.862a1.76,1.76,0,0,0,1.86-1.793,3.943,3.943,0,0,0-.256-1.2Zm-4.905,8.114,2.047-6.228L56.7,22.643Z" transform="translate(41.232 10.685)" fill="#fff"/>
  <path id="Caminho_26" data-name="Caminho 26" d="M62.323,12.438h-3.4c-2.092,0-2.6.827-2.6,2.688V26.71c0,1.819.6,2.712,1.883,2.712s1.883-.893,1.883-2.712V23.832h2.533c3.65,0,5.742-2.169,5.742-5.682C68.365,14.678,66.111,12.438,62.323,12.438Zm-.607,7.927H60.089V15.953h1.627c1.746,0,2.581.684,2.581,2.195C64.3,19.609,63.436,20.365,61.716,20.365Z" transform="translate(48.882 10.795)" fill="#fff"/>
  <path id="Caminho_27" data-name="Caminho 27" d="M76.69,12.325c-1.278,0-1.883.9-1.883,2.712V19H67.881V15.037c0-1.816-.605-2.712-1.885-2.712s-1.881.9-1.881,2.712V26.809c0,1.819.6,2.712,1.881,2.712s1.885-.893,1.885-2.712v-4.27h6.926v4.27c0,1.819.605,2.712,1.883,2.712s1.885-.893,1.885-2.712V15.037C78.574,13.222,77.969,12.325,76.69,12.325Z" transform="translate(55.644 10.697)" fill="#fff"/>
  <path id="Caminho_28" data-name="Caminho 28" d="M38.9,13.938,43.622,3.347a6.058,6.058,0,0,1,.364-.751,1.831,1.831,0,0,1,.368-.458,1.12,1.12,0,0,1,.431-.233,2.039,2.039,0,0,1,.542-.065,1.574,1.574,0,0,1,.544.092,1.148,1.148,0,0,1,.443.284,1.375,1.375,0,0,1,.3.489,2.09,2.09,0,0,1,.108.7V15.466a.718.718,0,0,1-.26.6.909.909,0,0,1-.566.2.839.839,0,0,1-.547-.2.716.716,0,0,1-.252-.6V3.59L39.94,15.15a1.233,1.233,0,0,1-.452.583,1.113,1.113,0,0,1-.624.2,1.047,1.047,0,0,1-.6-.187,1.249,1.249,0,0,1-.448-.592L32.678,3.67V15.464a.72.72,0,0,1-.258.6.922.922,0,0,1-.568.2.852.852,0,0,1-.551-.2.718.718,0,0,1-.248-.6V3.407a2.049,2.049,0,0,1,.11-.7,1.346,1.346,0,0,1,.3-.489,1.165,1.165,0,0,1,.445-.282,1.539,1.539,0,0,1,.544-.093A2.169,2.169,0,0,1,33,1.9a1.227,1.227,0,0,1,.456.237,1.924,1.924,0,0,1,.394.471,6.218,6.218,0,0,1,.383.755l4.619,10.572Z" transform="translate(26.95 1.595)" fill="#fff"/>
  <path id="Caminho_29" data-name="Caminho 29" d="M43.036,2.759a.878.878,0,0,1-.282.652,1.1,1.1,0,0,1-.8.28,1.085,1.085,0,0,1-.8-.28.895.895,0,0,1,0-1.308,1.3,1.3,0,0,1,1.6,0A.886.886,0,0,1,43.036,2.759Zm-1.873,4.3a.726.726,0,0,1,.254-.607.879.879,0,0,1,.555-.2.815.815,0,0,1,.29.05.729.729,0,0,1,.248.151.754.754,0,0,1,.179.252.848.848,0,0,1,.069.355v8.4a.735.735,0,0,1-.258.611.872.872,0,0,1-.558.207.821.821,0,0,1-.54-.2.753.753,0,0,1-.239-.62Z" transform="translate(35.473 1.587)" fill="#fff"/>
  <path id="Caminho_30" data-name="Caminho 30" d="M43.275,5.048a.643.643,0,0,1,.256-.551.9.9,0,0,1,.553-.187.68.68,0,0,1,.7.405,2.851,2.851,0,0,1,.084,1.255,2.372,2.372,0,0,1,.547-.786,4.061,4.061,0,0,1,.794-.581,4.117,4.117,0,0,1,.953-.39,3.933,3.933,0,0,1,1.027-.138,4.117,4.117,0,0,1,1.358.224,3.049,3.049,0,0,1,1.126.7,3.338,3.338,0,0,1,.771,1.214,4.957,4.957,0,0,1,.284,1.784v5.563a.671.671,0,0,1-.252.575.906.906,0,0,1-.555.192.867.867,0,0,1-.544-.192.691.691,0,0,1-.243-.575v-5.7a2.964,2.964,0,0,0-.191-1.123,2.363,2.363,0,0,0-.508-.783,2.009,2.009,0,0,0-.728-.473,2.459,2.459,0,0,0-.857-.151,3.233,3.233,0,0,0-1.158.2,2.99,2.99,0,0,0-.945.566,2.384,2.384,0,0,0-.644.973A3.967,3.967,0,0,0,44.874,8.5v5.06a.677.677,0,0,1-.254.575.91.91,0,0,1-.555.192.863.863,0,0,1-.544-.192.686.686,0,0,1-.245-.575V5.048Z" transform="translate(37.558 3.537)" fill="#fff"/>
  <path id="Caminho_31" data-name="Caminho 31" d="M58.151,15.5a.667.667,0,0,1-.245.572.868.868,0,0,1-.544.187,1,1,0,0,1-.29-.043.738.738,0,0,1-.252-.144.774.774,0,0,1-.185-.232.8.8,0,0,1-.08-.318v-.456c0-.123,0-.23-.011-.325v-.151a4.135,4.135,0,0,1-1.578,1.449,4.391,4.391,0,0,1-1.993.441,3.661,3.661,0,0,1-1.872-.456,3.839,3.839,0,0,1-1.281-1.2,5.366,5.366,0,0,1-.738-1.7,7.988,7.988,0,0,1,0-3.88,5.014,5.014,0,0,1,.747-1.655,3.814,3.814,0,0,1,1.3-1.147,3.933,3.933,0,0,1,1.9-.433,4.8,4.8,0,0,1,1.024.114,4.175,4.175,0,0,1,.977.34,4.026,4.026,0,0,1,.857.57,3.165,3.165,0,0,1,.665.82V2.585a.645.645,0,0,1,.245-.557.874.874,0,0,1,.544-.185.912.912,0,0,1,.553.189.641.641,0,0,1,.254.553ZM53.464,7.265a2.652,2.652,0,0,0-1.388.334,2.679,2.679,0,0,0-.9.885,3.816,3.816,0,0,0-.493,1.238,6.612,6.612,0,0,0-.149,1.4c0,.269.017.575.05.912a5.715,5.715,0,0,0,.174.96,4.748,4.748,0,0,0,.329.861,2.823,2.823,0,0,0,.516.712,2.235,2.235,0,0,0,.727.486,2.508,2.508,0,0,0,.979.177,3.223,3.223,0,0,0,1.554-.336,2.657,2.657,0,0,0,.99-.9,3.817,3.817,0,0,0,.519-1.326,8.369,8.369,0,0,0,.149-1.608,6.244,6.244,0,0,0-.159-1.431,3.69,3.69,0,0,0-.519-1.216,2.59,2.59,0,0,0-.943-.839A3.034,3.034,0,0,0,53.464,7.265Z" transform="translate(42.39 1.599)" fill="#fff"/>
  <path id="Caminho_32" data-name="Caminho 32" d="M59.286,5.84l.129-2.854a.643.643,0,0,1,.265-.5.862.862,0,0,1,.525-.183.672.672,0,0,1,.443.163.617.617,0,0,1,.192.5V5.84h1.788a.586.586,0,0,1,.478.192.651.651,0,0,1,.159.424.615.615,0,0,1-.159.413.6.6,0,0,1-.478.183H60.84v4.694c0,.607.007,1.106.021,1.491a3.487,3.487,0,0,0,.14.943.877.877,0,0,0,.37.5,1.37,1.37,0,0,0,.7.149,3.629,3.629,0,0,0,.547-.047,3.072,3.072,0,0,1,.489-.045.532.532,0,0,1,.433.177.561.561,0,0,1,.146.349.526.526,0,0,1-.179.418,1.37,1.37,0,0,1-.474.248,3.451,3.451,0,0,1-.618.121c-.217.019-.4.03-.564.03a3.423,3.423,0,0,1-1.158-.177,1.818,1.818,0,0,1-.813-.581,2.643,2.643,0,0,1-.478-1.061,7.39,7.39,0,0,1-.155-1.631V7.053H58.04a.6.6,0,0,1-.482-.187.61.61,0,0,1,0-.837.6.6,0,0,1,.482-.187h1.246Z" transform="translate(49.81 1.995)" fill="#fff"/>
  <path id="Caminho_33" data-name="Caminho 33" d="M68.32,9.735a2.955,2.955,0,0,0-.189-1.1,2.154,2.154,0,0,0-.508-.781,1.982,1.982,0,0,0-.728-.443,2.536,2.536,0,0,0-.857-.146,3.41,3.41,0,0,0-1.158.194,2.612,2.612,0,0,0-.947.587,2.807,2.807,0,0,0-.643.981,3.809,3.809,0,0,0-.237,1.418v5.049a.67.67,0,0,1-.252.573.9.9,0,0,1-.553.194.846.846,0,0,1-.542-.194.68.68,0,0,1-.245-.573V2.585a.644.644,0,0,1,.252-.553.917.917,0,0,1,.555-.189.885.885,0,0,1,.544.185.647.647,0,0,1,.241.557V7.914A2.7,2.7,0,0,1,63.6,7.1a3.343,3.343,0,0,1,.794-.6,3.816,3.816,0,0,1,.951-.366,4.451,4.451,0,0,1,1.027-.121,4.244,4.244,0,0,1,1.356.215A3,3,0,0,1,68.86,6.9a3.208,3.208,0,0,1,.773,1.186,4.9,4.9,0,0,1,.284,1.773v5.634a.673.673,0,0,1-.256.575.9.9,0,0,1-.553.192.859.859,0,0,1-.544-.192.686.686,0,0,1-.245-.575V9.735Z" transform="translate(53.341 1.599)" fill="#fff"/>
  <path id="Caminho_34" data-name="Caminho 34" d="M76.491,9.006a.629.629,0,0,1-.144.409.6.6,0,0,1-.495.176H68.719A5.491,5.491,0,0,0,69,11.248a2.847,2.847,0,0,0,.727,1.136,3.308,3.308,0,0,0,1.067.684,3.494,3.494,0,0,0,1.274.228,4.339,4.339,0,0,0,1.476-.269,6.387,6.387,0,0,0,1.487-.785.643.643,0,0,1,.215-.112.679.679,0,0,1,.194-.032.466.466,0,0,1,.368.153.515.515,0,0,1,.14.364.634.634,0,0,1-.219.474,4.8,4.8,0,0,1-.872.672,5.257,5.257,0,0,1-.951.452,5.992,5.992,0,0,1-.988.252,6.268,6.268,0,0,1-.979.08,5.046,5.046,0,0,1-1.9-.359,4.506,4.506,0,0,1-1.558-1.039A4.916,4.916,0,0,1,67.428,11.5,5.96,5.96,0,0,1,67.045,9.3a6.506,6.506,0,0,1,.3-1.989,4.982,4.982,0,0,1,.9-1.668A4.371,4.371,0,0,1,69.731,4.5a4.66,4.66,0,0,1,2.042-.426,5.34,5.34,0,0,1,2.088.375,3.932,3.932,0,0,1,1.457,1.033,4.3,4.3,0,0,1,.857,1.558A7.189,7.189,0,0,1,76.491,9.006ZM74.924,8.52a4.641,4.641,0,0,0-.263-1.3,2.974,2.974,0,0,0-.6-1.012,2.622,2.622,0,0,0-.953-.654,3.479,3.479,0,0,0-1.311-.226,2.764,2.764,0,0,0-1.188.252,2.866,2.866,0,0,0-.928.695A3.634,3.634,0,0,0,69.049,7.3,3.986,3.986,0,0,0,68.76,8.52Z" transform="translate(58.187 3.535)" fill="#fff"/>
</svg>
