<svg id="image_3" xmlns="http://www.w3.org/2000/svg" xmlns:xlink="http://www.w3.org/1999/xlink" width="214.898" height="201.987" viewBox="0 0 214.898 201.987">
  <defs>
    <clipPath id="clip-path">
      <ellipse id="Elipse_90" data-name="Elipse 90" cx="100.993" cy="100.993" rx="100.993" ry="100.993"/>
    </clipPath>
  </defs>
  <ellipse id="Elipse_89" data-name="Elipse 89" cx="100.993" cy="100.993" rx="100.993" ry="100.993" transform="translate(0 0)" fill="#5e4a9e" opacity="0.1"/>
  <g id="Grupo_774" data-name="Grupo 774" transform="translate(0 0)">
    <g id="Grupo_770" data-name="Grupo 770" clip-path="url(#clip-path)">
      <g id="Grupo_768" data-name="Grupo 768" transform="translate(81.247 26.764)">
        <path id="Caminho_931" data-name="Caminho 931" d="M229.319,43.3a.935.935,0,0,1-.935.935H117.579a.936.936,0,0,1-.935-.935v-3.94a.935.935,0,0,1,.935-.935H228.384a.934.934,0,0,1,.935.935Z" transform="translate(-116.644 -38.424)" fill="#fff" stroke="#5e4a9e" stroke-linecap="round" stroke-linejoin="round" stroke-width="2"/>
        <line id="Linha_200" data-name="Linha 200" y2="2.978" transform="translate(15.871 5.81)" fill="#fff" stroke="#5e4a9e" stroke-linecap="round" stroke-linejoin="round" stroke-width="2"/>
        <line id="Linha_201" data-name="Linha 201" y2="2.978" transform="translate(94.112 5.81)" fill="#fff" stroke="#5e4a9e" stroke-linecap="round" stroke-linejoin="round" stroke-width="2"/>
      </g>
      <g id="Grupo_769" data-name="Grupo 769" transform="translate(105.232 100.428)">
        <path id="Caminho_932" data-name="Caminho 932" d="M151.08,254.565l16.389-109.586a.938.938,0,0,1,1.062-.788l3.9.585a.931.931,0,0,1,.786,1.06L156.826,254.565C156.75,255.076,151,255.077,151.08,254.565Z" transform="translate(-151.079 -144.182)" fill="#fff" stroke="#5e4a9e" stroke-linecap="round" stroke-linejoin="round" stroke-width="2"/>
        <path id="Caminho_933" data-name="Caminho 933" d="M234.694,254.565,218.306,144.979a.941.941,0,0,0-1.064-.788l-3.9.585a.934.934,0,0,0-.788,1.06l16.389,108.728C229.022,255.076,234.768,255.077,234.694,254.565Z" transform="translate(-169.732 -144.182)" fill="#fff" stroke="#5e4a9e" stroke-linecap="round" stroke-linejoin="round" stroke-width="2"/>
      </g>
      <path id="Caminho_934" data-name="Caminho 934" d="M227.123,192.553A3.444,3.444,0,0,1,223.681,196H128.073a3.445,3.445,0,0,1-3.446-3.443V54.483a3.445,3.445,0,0,1,3.446-3.443h95.608a3.444,3.444,0,0,1,3.442,3.443Z" transform="translate(-37.819 -15.489)" fill="#fff" stroke="#5e4a9e" stroke-linecap="round" stroke-linejoin="round" stroke-width="2"/>
    </g>
    <g id="Grupo_771" data-name="Grupo 771" clip-path="url(#clip-path)">
      <path id="Caminho_935" data-name="Caminho 935" d="M201.211,126.665c7.516,13.36,9.418,26.546,4.25,29.453s-15.446-5.569-22.96-18.931-9.417-26.545-4.247-29.452S193.7,113.3,201.211,126.665Z" transform="translate(-53.21 -32.52)" fill="none" stroke="#d6246e" stroke-linecap="round" stroke-linejoin="round" stroke-width="1.5"/>
      <path id="Caminho_936" data-name="Caminho 936" d="M182.5,126.665c-7.516,13.36-9.419,26.546-4.252,29.453s15.448-5.569,22.961-18.931,9.416-26.545,4.247-29.452S190.014,113.3,182.5,126.665Z" transform="translate(-53.21 -32.52)" fill="none" stroke="#d6246e" stroke-linecap="round" stroke-linejoin="round" stroke-width="1.5"/>
      <path id="Caminho_937" data-name="Caminho 937" d="M186.7,127.3c-15.325.372-27.63,5.48-27.486,11.407s12.685,10.426,28.01,10.053,27.629-5.483,27.482-11.409S202.025,126.927,186.7,127.3Z" transform="translate(-48.316 -38.625)" fill="none" stroke="#d6246e" stroke-linecap="round" stroke-linejoin="round" stroke-width="1.5"/>
      <ellipse id="Elipse_91" data-name="Elipse 91" cx="6.426" cy="6.426" rx="6.426" ry="6.426" transform="translate(132.338 92.824)" fill="#d6246e"/>
    </g>
    <g id="Grupo_773" data-name="Grupo 773" clip-path="url(#clip-path)">
      <path id="Caminho_938" data-name="Caminho 938" d="M114.831,152.608c.928,1.208,2.023,4.179,3.41,4.188.913.006,1.684-.972,2.4-1.367a21.039,21.039,0,0,0,2.536-1.494,11.975,11.975,0,0,1,2.666-1.1,28.643,28.643,0,0,1,2.525-1.371c2.017-.662,2.982-1.936,4.672-3.244a62.61,62.61,0,0,0,7.541-7.143,26.706,26.706,0,0,0,2.857-4.027,14.059,14.059,0,0,1,1.693-2.077,9.781,9.781,0,0,1,2.273-1.75c.9-.6,1.773-1.567,2.662-2.273a13.825,13.825,0,0,1,1.39-1.2,17.944,17.944,0,0,1,2.218-.775c1.339-.544,7.315-3.257,7.545-.545,1.394.525,4.439-.508,5.963-.761,1.812-.3,3.288-1.055,5.3-.889a3.494,3.494,0,0,0,.424,1.278c-.956,1.3-3.574,1.87-4.948,2.469-1.133.495-1.823.236-1.79,1.53.036,1.415.408,1.095-.547,2.234-.708.841-.52,1.488-1.036,2.34-.476.783-1.275.919-1.789,1.693-.5.753-.514,1.553-1.17,2.236a6.924,6.924,0,0,1-2.368,1.426,42.8,42.8,0,0,1-10.911,3.479c-1.767.268-2.668,1.892-3.8,3.217-1.235,1.452-2.582,2.689-3.71,4.222a61.77,61.77,0,0,1-15.387,15c-3.27,2.143-6.155,4.3-10,5.069-4.433.886-6.748-.412-8.808-4.381-.541-1.046-2.953-3.632-2.329-4.656.291-.479,1.893-.879,2.431-1.229a18.456,18.456,0,0,0,1.955-1.428,29.418,29.418,0,0,0,3.178-3.709c.607-.732,1.146-1.47,1.686-2.226.4-.561,1.136-1.92,1.266-1.826" transform="translate(-31.625 -38.466)" fill="#fff"/>
      <path id="Caminho_939" data-name="Caminho 939" d="M49.216,76.977a19.65,19.65,0,0,1,1.328,12.905,17.8,17.8,0,0,1-.928,3.6c-.551,1.05-1.268.765,0,1.81a17.46,17.46,0,0,0,4.5,2.521,30.184,30.184,0,0,0,4.576,1.826,15.063,15.063,0,0,0,4.94.123c1.248-.235,2.422-1.463,3.35-2.313.385-.353,1.272-1.027,1.42-1.539.219-.764-.311-1.125-.711-1.826a10.76,10.76,0,0,1-1.091-4.16c1.266-.42,2.918-2.221,3.775-3.254A19.983,19.983,0,0,0,72.588,82a24.229,24.229,0,0,0,1.266-5.262c.277-1.92,1.059-3.591,1.252-5.548a25.768,25.768,0,0,0-.271-6.157c-.151-1.061-.548-2.14-.741-3.2a5.382,5.382,0,0,0-1.352-2.836c-1.246-1.277-3.024-1.071-4.714-.984a21.4,21.4,0,0,0-8.985,3.045,43.716,43.716,0,0,0-7,4.594A8.4,8.4,0,0,0,49,71.218c-.01.114-.019.226-.03.339" transform="translate(-14.842 -17.583)" fill="#fff"/>
      <path id="Caminho_940" data-name="Caminho 940" d="M75.423,192.994c-.7-1.615-1.773-.648-2.7.16a7.929,7.929,0,0,1-3.353,1.6,9.241,9.241,0,0,1-2.131.106c-.067,0-.131,0-.2.009a10.53,10.53,0,0,0,.838-1.849c.211-.682.415-1.484-.382-1.624a19.8,19.8,0,0,0-2.037.272,32.538,32.538,0,0,0-4.438,0,9.688,9.688,0,0,0-3.551,1.489c-.528.309-.975.741-1.484,1.023a5.492,5.492,0,0,1-1.84.706,9.447,9.447,0,0,1-4.193-.431,34.223,34.223,0,0,0-4.2-1.188c-3.1-.475-6.208-.823-9.212-1.44a37.709,37.709,0,0,0-4.015-.87,11.817,11.817,0,0,1-1.256-.221c0-.008,0-.016,0-.024-.889-.221-1.8-.527-2.669-.791a11.418,11.418,0,0,0-2.822-.38c-.933-.056-1.987-.115-2.929-.265-.772-.123-1.4-.634-2.115-.725-.756-1.889.915-4.066.08-6.1-2.318.9-5.307.538-7.817.252-1.33-.152-2.6-.425-3.905-.619a8.548,8.548,0,0,1-2.042-.329c-.634-.26-1.291-.921-1.775-1.089l-.088.887c-.389.661-.11,1.7-.178,2.485-.076.9-.231,1.751-.265,2.663-.068,1.767.265,3.4.177,5.148-.147,2.933-.17,5.589,1.793,7.9a6.008,6.008,0,0,0,3.426,2.065c1.389.383,2.466,1.075,3.925,1.218,3.054.3,6.1.412,9.146.71,1.555.153,3.205-.07,4.77.024a16.426,16.426,0,0,0,3.053.044c.575.085,1.153.126,1.741.184,1.693.166,3.374.3,5.081.377,3.173.139,6.545-.118,9.674.353,1.439.217,2.91.208,4.349.552,1.422.339,2.7.985,4.082,1.381a15.9,15.9,0,0,0,4.162.287,11.848,11.848,0,0,0,5.091-.336,22.436,22.436,0,0,0,3.265-1.013c1.2-.524,1.8-1.037,1.79-2.275a3.186,3.186,0,0,0,1.937-1.875,5.162,5.162,0,0,1,.511-1.358c.247-.381.616-.626.845-1.019.571-.984.471-2.056,1.152-3.024C75.408,195.045,75.967,194.25,75.423,192.994Z" transform="translate(-1.436 -54.823)" fill="#fff"/>
      <g id="Grupo_772" data-name="Grupo 772" transform="translate(3.45 31.539)">
        <path id="Caminho_941" data-name="Caminho 941" d="M77.918,60.127s2.48,5.82,1.725,11.533c0,0-.063,1.088-.3,4.241,0,0-.7,7.708-5.625,13.542,0,0-2.668,3.452-8.514-.431" transform="translate(-23.236 -49.785)" fill="none" stroke="#5e4a9e" stroke-linecap="round" stroke-linejoin="round" stroke-width="1.5"/>
        <path id="Caminho_942" data-name="Caminho 942" d="M53.416,77.126s-2.473-1.961-2.813,2.046c0,0-.511,4.348,2.813,3.5" transform="translate(-18.798 -54.798)" fill="none" stroke="#5e4a9e" stroke-linecap="round" stroke-linejoin="round" stroke-width="1.5"/>
        <path id="Caminho_943" data-name="Caminho 943" d="M46.086,67.364c.13.007.265.775.392.775,5.459,0,7.929-7.692,7.929-7.692,1.72-3.55,8.44-3.24,8.44-3.24,6.379-.277,5.836-4.016,5.836-4.016s.256-3.322-8.053-6.557c0,0-12.788-4.86-18.16,3.837,0,0-4.346,6.993-4.774,13.983,0,0,.427,9.8-2.643,12.532,0,0-9.463,12.363-6.905,19.354,0,0,10.743-1.364,14.409-5.115A20.882,20.882,0,0,0,46.478,79.2v-.511s-.086-4.213-.682-5.432c0,0-2.521-.1-2.214-3.072.017-.169.053-.345.081-.535.389-2.684,1.59-2.414,2.422-2.289" transform="translate(-11.859 -45.279)" fill="#5e4a9e"/>
        <path id="Caminho_944" data-name="Caminho 944" d="M74.463,104.243s.166,4.688,2.071,5.1c0,0,2.319,1.16,8.285,1.243,0,0,8.117.332,10.6,6.545,0,0,10.438,29.08,13.007,32.559" transform="translate(-26.047 -63.172)" fill="none" stroke="#5e4a9e" stroke-linecap="round" stroke-linejoin="round" stroke-width="1.5"/>
        <path id="Caminho_945" data-name="Caminho 945" d="M48.744,111.09s14.971,10.679,19.984.334" transform="translate(-18.242 -65.25)" fill="none" stroke="#5e4a9e" stroke-linecap="round" stroke-linejoin="round" stroke-width="1.5"/>
        <path id="Caminho_946" data-name="Caminho 946" d="M82.514,58.146a22.865,22.865,0,0,1,2.43,12.5s.079,3.146.083,4.044c0,0,5.187-10.73-.627-16.544Z" transform="translate(-28.49 -49.184)" fill="#5e4a9e"/>
        <path id="Caminho_947" data-name="Caminho 947" d="M23.466,117.243s-5.45,2.674-7.591,3.842c0,0-3.7,1.947-6.035,7.981,0,0-5.255,19.661-4.866,46.913,0,0,.194,7.2,10.121,8.175,0,0,33.724.973,38.274,2.336,0,0,5.914,2.141,10.975.973,0,0,6.567-1.168,6.008-3.115" transform="translate(-4.953 -67.117)" fill="none" stroke="#5e4a9e" stroke-linecap="round" stroke-linejoin="round" stroke-width="1.5"/>
        <path id="Caminho_948" data-name="Caminho 948" d="M29,161.289s-1.44,18.62-1.309,21.54" transform="translate(-11.851 -80.484)" fill="none" stroke="#5e4a9e" stroke-linecap="round" stroke-linejoin="round" stroke-width="1.5"/>
        <path id="Caminho_949" data-name="Caminho 949" d="M24.326,191.753c5.371.488,33.208,6.593,33.208,6.593,4.516.366,4.884-.855,4.884-.855a8.232,8.232,0,0,1,6.339-2.408s3.341.336,4.363-.313c0,0,1.346-.511.974,1.392,0,0-.464,1.9-1.95,2.342" transform="translate(-10.832 -89.728)" fill="none" stroke="#5e4a9e" stroke-linecap="round" stroke-linejoin="round" stroke-width="1.5"/>
        <path id="Caminho_950" data-name="Caminho 950" d="M86.381,199.953s7.194.212,7.937,0a7.275,7.275,0,0,0,3.247-1.65s1.022-1.764,1.857-1.438c0,0,2.227,1.16-.418,4.78a5.76,5.76,0,0,1-4.269,2.135l-3.249.371" transform="translate(-29.663 -91.267)" fill="none" stroke="#5e4a9e" stroke-linecap="round" stroke-linejoin="round" stroke-width="1.5"/>
        <path id="Caminho_951" data-name="Caminho 951" d="M95.775,208.571s6.006-.022,6.08-4.827" transform="translate(-32.514 -93.367)" fill="none" stroke="#5e4a9e" stroke-linecap="round" stroke-linejoin="round" stroke-width="1.5"/>
        <path id="Caminho_952" data-name="Caminho 952" d="M94.844,212.28s4.586.051,4.961-3.5" transform="translate(-32.232 -94.895)" fill="none" stroke="#5e4a9e" stroke-linecap="round" stroke-linejoin="round" stroke-width="1.5"/>
        <path id="Caminho_953" data-name="Caminho 953" d="M5.4,181.106a24.844,24.844,0,0,0,15.768,1.513" transform="translate(-5.09 -86.497)" fill="none" stroke="#5e4a9e" stroke-linecap="round" stroke-linejoin="round" stroke-width="1.5"/>
        <path id="Caminho_954" data-name="Caminho 954" d="M100.975,144.816a67.8,67.8,0,0,1,0,17.188s-.875,11.274.955,20.516" transform="translate(-34.029 -75.485)" fill="none" stroke="#5e4a9e" stroke-linecap="round" stroke-linejoin="round" stroke-width="1.5"/>
        <path id="Caminho_955" data-name="Caminho 955" d="M30.268,227a58.908,58.908,0,0,0,1.672-13.194" transform="translate(-12.635 -96.42)" fill="none" stroke="#5e4a9e" stroke-linecap="round" stroke-linejoin="round" stroke-width="1.5"/>
        <path id="Caminho_956" data-name="Caminho 956" d="M81.947,205.679s1.924,5.887,4.431,12.258c0,0-27.7,9.983-56.14,6.6a7.357,7.357,0,0,0,0,2.15" transform="translate(-12.606 -93.954)" fill="none" stroke="#5e4a9e" stroke-linecap="round" stroke-linejoin="round" stroke-width="1.5"/>
        <path id="Caminho_957" data-name="Caminho 957" d="M120.264,159.115c1.36-2.325,10.171-5.5,10.171-5.5,8.342-3.719,16.3-13.653,16.3-13.653s5.774-8.739,11.519-10.654a28.751,28.751,0,0,1,4.6-1.086,24.274,24.274,0,0,0,2.363-.578s1.6-.187,1.022,1.345a16.428,16.428,0,0,1-4.6,3.128,8.33,8.33,0,0,1-2.682,3.83" transform="translate(-39.946 -70.27)" fill="none" stroke="#5e4a9e" stroke-linecap="round" stroke-linejoin="round" stroke-width="1.5"/>
        <path id="Caminho_958" data-name="Caminho 958" d="M100.887,162.788a43.243,43.243,0,0,0,6.951,13.18c6.994,6.112,21.838-8.21,21.838-8.21a167.946,167.946,0,0,0,16.02-17.742,9.452,9.452,0,0,1,3.42-.982s10.521-2.334,12.18-5.462c0,0,2.023-2.661-1.751-3.724,0,0-2.576-.548-4.045.793-.952.989-1.377,1.6-.747,2.248,0,0,.711.63,2.6-.27a1.646,1.646,0,0,0,.382.767" transform="translate(-34.065 -73.943)" fill="none" stroke="#5e4a9e" stroke-linecap="round" stroke-linejoin="round" stroke-width="1.5"/>
        <path id="Caminho_959" data-name="Caminho 959" d="M185.4,129.164s6.662-1.564,9.472-2.33c0,0,2.234-.894,2.554,0,0,0,.574,1.594-1.6,2.33l-5.645,2.4" transform="translate(-59.712 -69.907)" fill="none" stroke="#5e4a9e" stroke-linecap="round" stroke-linejoin="round" stroke-width="1.5"/>
        <path id="Caminho_960" data-name="Caminho 960" d="M186.029,140.532s2.537-.92,1.835-2.644c0,0-1.841-3.779-5.427-2.554,0,0-2.161.494-1.787,1.851a1.725,1.725,0,0,0,1.125,1.183" transform="translate(-58.257 -72.533)" fill="none" stroke="#5e4a9e" stroke-linecap="round" stroke-linejoin="round" stroke-width="1.5"/>
        <path id="Caminho_961" data-name="Caminho 961" d="M183.935,134.1a1.583,1.583,0,0,1,1-2,4.543,4.543,0,0,1,4.039.464s3.575,2.345-.123,4.337" transform="translate(-59.245 -71.542)" fill="none" stroke="#5e4a9e" stroke-linecap="round" stroke-linejoin="round" stroke-width="1.5"/>
      </g>
      <path id="Caminho_962" data-name="Caminho 962" d="M39.484,115.926s23.541,21.18,28.46,28.369" transform="translate(-11.982 -35.179)" fill="none" stroke="#5e4a9e" stroke-linecap="round" stroke-linejoin="round" stroke-width="1.5"/>
      <path id="Caminho_963" data-name="Caminho 963" d="M82.714,113.011s-.681,21.958-2.37,30.4V147.5" transform="translate(-24.381 -34.294)" fill="none" stroke="#5e4a9e" stroke-linecap="round" stroke-linejoin="round" stroke-width="1.5"/>
      <path id="Caminho_964" data-name="Caminho 964" d="M84.838,170.818a1.772,1.772,0,0,1-1.771,1.771H70.682a1.771,1.771,0,0,1-1.77-1.771v-6.426a1.771,1.771,0,0,1,1.77-1.772H83.067a1.772,1.772,0,0,1,1.771,1.772Z" transform="translate(-20.912 -49.349)" fill="#d6246e"/>
      <path id="Caminho_965" data-name="Caminho 965" d="M28.051,229.712c1.649.238,2.869,1,4.586,1.042a39.527,39.527,0,0,0,5-.417c3.311-.332,6.782-.417,10.213-.417a76.015,76.015,0,0,0,19.59-2.3c5.5-1.525,11.143-2.553,16.637-4.548a42.8,42.8,0,0,1,2.907,8.357,62.3,62.3,0,0,1,1.3,9.541,106.93,106.93,0,0,1-.614,20.007c-.4,2.92.6,7.525-2.975,8.289-2.388.51-5.587.134-8.021,0-4.458-.245-8.836-.579-13.347-.579a70.467,70.467,0,0,1-16.516-1.88c-2.887-.684-5.831-.407-8.707-.976a39.036,39.036,0,0,1-6.511-2.3c-6.664-2.674-6.7-9.7-6.457-16.046.127-3.323,1.165-5.879,2.338-8.967a19.307,19.307,0,0,0,1.2-7.966" transform="translate(-7.606 -67.692)" fill="#5e4a9e"/>
      <path id="Caminho_966" data-name="Caminho 966" d="M115.324,163.622s-4.1,9.237-11.339,11.8" transform="translate(-31.555 -49.653)" fill="none" stroke="#5e4a9e" stroke-linecap="round" stroke-linejoin="round" stroke-width="1.5"/>
      <path id="Caminho_967" data-name="Caminho 967" d="M110.865,223.276s5.846,17.335,2.389,44.093" transform="translate(-33.643 -67.756)" fill="none" stroke="#5e4a9e" stroke-linecap="round" stroke-linejoin="round" stroke-width="1.5"/>
    </g>
  </g>
  <g id="Grupo_775" data-name="Grupo 775" transform="translate(81.033 26.764)">
    <path id="Caminho_968" data-name="Caminho 968" d="M229.011,43.3a.935.935,0,0,1-.935.935H117.271a.936.936,0,0,1-.935-.935v-3.94a.935.935,0,0,1,.935-.935H228.076a.934.934,0,0,1,.935.935Z" transform="translate(-116.336 -38.424)" fill="#fff" stroke="#5e4a9e" stroke-linecap="round" stroke-linejoin="round" stroke-width="2"/>
    <line id="Linha_202" data-name="Linha 202" y2="2.978" transform="translate(15.871 5.81)" fill="#fff" stroke="#5e4a9e" stroke-linecap="round" stroke-linejoin="round" stroke-width="2"/>
    <line id="Linha_203" data-name="Linha 203" y2="2.978" transform="translate(94.112 5.81)" fill="#fff" stroke="#5e4a9e" stroke-linecap="round" stroke-linejoin="round" stroke-width="2"/>
  </g>
  <path id="Caminho_969" data-name="Caminho 969" d="M124.318,54.483a3.445,3.445,0,0,1,3.446-3.443h95.608a3.444,3.444,0,0,1,3.442,3.443V98.92" transform="translate(-37.726 -15.489)" fill="#fff" stroke="#5e4a9e" stroke-linecap="round" stroke-linejoin="round" stroke-width="2"/>
  <rect id="Retângulo_716" data-name="Retângulo 716" width="83.251" height="10.084" transform="translate(96.903 43.335)" fill="#d6246e"/>
  <line id="Linha_204" data-name="Linha 204" x2="74.152" transform="translate(100.993 60.479)" fill="none" stroke="#d6246e" stroke-linecap="round" stroke-linejoin="round" stroke-width="1.5"/>
  <line id="Linha_205" data-name="Linha 205" x2="74.152" transform="translate(100.993 64.666)" fill="none" stroke="#d6246e" stroke-linecap="round" stroke-linejoin="round" stroke-width="1.5"/>
  <line id="Linha_206" data-name="Linha 206" x2="74.152" transform="translate(100.993 68.845)" fill="none" stroke="#d6246e" stroke-linecap="round" stroke-linejoin="round" stroke-width="1.5"/>
  <line id="Linha_207" data-name="Linha 207" x2="36.849" transform="translate(100.993 136.994)" fill="none" stroke="#d6246e" stroke-linecap="round" stroke-linejoin="round" stroke-width="1.5"/>
  <line id="Linha_208" data-name="Linha 208" x2="36.849" transform="translate(100.993 141.18)" fill="none" stroke="#d6246e" stroke-linecap="round" stroke-linejoin="round" stroke-width="1.5"/>
  <line id="Linha_209" data-name="Linha 209" x2="36.849" transform="translate(100.993 145.359)" fill="none" stroke="#d6246e" stroke-linecap="round" stroke-linejoin="round" stroke-width="1.5"/>
  <line id="Linha_210" data-name="Linha 210" x2="36.849" transform="translate(100.993 149.532)" fill="none" stroke="#d6246e" stroke-linecap="round" stroke-linejoin="round" stroke-width="1.5"/>
  <line id="Linha_211" data-name="Linha 211" x2="36.849" transform="translate(100.993 153.718)" fill="none" stroke="#d6246e" stroke-linecap="round" stroke-linejoin="round" stroke-width="1.5"/>
  <line id="Linha_212" data-name="Linha 212" x2="36.849" transform="translate(100.993 157.897)" fill="none" stroke="#d6246e" stroke-linecap="round" stroke-linejoin="round" stroke-width="1.5"/>
  <line id="Linha_213" data-name="Linha 213" x2="36.849" transform="translate(100.993 162.076)" fill="none" stroke="#d6246e" stroke-linecap="round" stroke-linejoin="round" stroke-width="1.5"/>
  <line id="Linha_214" data-name="Linha 214" x2="36.849" transform="translate(100.993 166.256)" fill="none" stroke="#d6246e" stroke-linecap="round" stroke-linejoin="round" stroke-width="1.5"/>
  <line id="Linha_215" data-name="Linha 215" x2="36.849" transform="translate(145.19 136.994)" fill="none" stroke="#d6246e" stroke-linecap="round" stroke-linejoin="round" stroke-width="1.5"/>
  <line id="Linha_216" data-name="Linha 216" x2="36.849" transform="translate(145.19 141.18)" fill="none" stroke="#d6246e" stroke-linecap="round" stroke-linejoin="round" stroke-width="1.5"/>
  <line id="Linha_217" data-name="Linha 217" x2="36.849" transform="translate(145.19 145.359)" fill="none" stroke="#d6246e" stroke-linecap="round" stroke-linejoin="round" stroke-width="1.5"/>
  <line id="Linha_218" data-name="Linha 218" x2="36.849" transform="translate(145.19 149.532)" fill="none" stroke="#d6246e" stroke-linecap="round" stroke-linejoin="round" stroke-width="1.5"/>
  <line id="Linha_219" data-name="Linha 219" x2="36.849" transform="translate(145.19 153.718)" fill="none" stroke="#d6246e" stroke-linecap="round" stroke-linejoin="round" stroke-width="1.5"/>
  <line id="Linha_220" data-name="Linha 220" x2="36.849" transform="translate(145.19 157.897)" fill="none" stroke="#d6246e" stroke-linecap="round" stroke-linejoin="round" stroke-width="1.5"/>
  <line id="Linha_221" data-name="Linha 221" x2="36.849" transform="translate(145.19 162.076)" fill="none" stroke="#d6246e" stroke-linecap="round" stroke-linejoin="round" stroke-width="1.5"/>
  <line id="Linha_222" data-name="Linha 222" x2="36.849" transform="translate(145.19 166.256)" fill="none" stroke="#d6246e" stroke-linecap="round" stroke-linejoin="round" stroke-width="1.5"/>
  <line id="Linha_223" data-name="Linha 223" x1="11.059" y1="7.436" transform="translate(63.175 13.61)" fill="none" stroke="#d6246e" stroke-linecap="round" stroke-linejoin="round" stroke-width="1.5"/>
  <line id="Linha_224" data-name="Linha 224" x1="13.2" transform="translate(59.707 27.617)" fill="none" stroke="#d6246e" stroke-linecap="round" stroke-linejoin="round" stroke-width="1.5"/>
  <line id="Linha_225" data-name="Linha 225" x2="4.217" y2="11.16" transform="translate(75.931 4.896)" fill="none" stroke="#d6246e" stroke-linecap="round" stroke-linejoin="round" stroke-width="1.5"/>
  <line id="Linha_226" data-name="Linha 226" y1="7.436" x2="11.058" transform="translate(199.621 13.61)" fill="none" stroke="#d6246e" stroke-linecap="round" stroke-linejoin="round" stroke-width="1.5"/>
  <line id="Linha_227" data-name="Linha 227" x2="13.2" transform="translate(200.947 27.617)" fill="none" stroke="#d6246e" stroke-linecap="round" stroke-linejoin="round" stroke-width="1.5"/>
  <line id="Linha_228" data-name="Linha 228" x1="4.215" y2="11.16" transform="translate(193.708 4.896)" fill="none" stroke="#d6246e" stroke-linecap="round" stroke-linejoin="round" stroke-width="1.5"/>
</svg>
